#!OML:ASF F:\VICON\USERDATA\INSTALL\rory3\rory3.ASF
:FULLY-SPECIFIED
:DEGREES
2051
root 1.60184 18.2699 4.84088 356.196 -115.406 -357.289
lowerback 4.73429 -0.192923 -5.54936
upperback -8.09137 -1.96947 -5.98109
thorax -11.4763 -1.02185 -3.05188
lowerneck -15.1157 -8.76538 -18.5626
upperneck -10.1911 -9.21099 16.0319
head 1.03359 -4.24659 7.41675
rclavicle -2.62396e-014 -6.36111e-014
rhumerus 91.9858 -35.302 -44.6309
rradius 26.1827
rwrist 15.0073
rhand -35.9222 -3.09917
rfingers 7.12502
rthumb -9.03474 -32.8857
lclavicle -2.62396e-014 -6.36111e-014
lhumerus 96.9017 33.014 44.1835
lradius 28.0933
lwrist 33.5588
lhand -10.1901 34.8456
lfingers 7.12502
lthumb 15.8005 64.2208
rfemur -0.568281 0.479705 21.4431
rtibia 34.6225
rfoot -8.65056 -4.98456
rtoes -0.172097
lfemur -13.1991 -6.02778 -4.72638
ltibia 32.9328
lfoot -15.2439 0.570055
ltoes -16.7409
2052
root 1.62574 18.3384 4.81512 356.803 -115.358 -357.889
lowerback 4.64772 -0.100379 -5.85758
upperback -8.21994 -1.92296 -6.14292
thorax -11.5771 -0.992042 -3.06774
lowerneck -14.6732 -8.68148 -18.2577
upperneck -10.4493 -9.20775 15.5708
head 0.843526 -4.26879 7.23984
rclavicle -7.07673e-014 5.40694e-014
rhumerus 91.4803 -35.2891 -44.244
rradius 26.4299
rwrist 14.0456
rhand -34.9652 -3.26902
rfingers 7.12502
rthumb -8.11114 -33.0934
lclavicle -7.07673e-014 5.40694e-014
lhumerus 96.8477 33.2419 43.9401
lradius 28.283
lwrist 33.6648
lhand -9.95307 34.6734
lfingers 7.12502
lthumb 16.0288 64.0304
rfemur -0.49518 0.651135 21.3134
rtibia 34.0143
rfoot -8.11567 -5.65803
rtoes -0.502871
lfemur -13.4688 -6.29116 -4.89055
ltibia 33.0622
lfoot -15.4649 1.52453
ltoes -16.6935
2053
root 1.64562 18.4016 4.7911 357.22 -115.258 -358.265
lowerback 4.51563 -0.0682675 -6.08962
upperback -8.37802 -1.94606 -6.27485
thorax -11.6854 -1.00062 -3.08455
lowerneck -14.0223 -8.51669 -17.6347
upperneck -10.9097 -9.17719 14.8794
head 0.529359 -4.29466 6.95544
rclavicle 1.19271e-014 3.81667e-014
rhumerus 90.8441 -35.2813 -43.5869
rradius 26.4953
rwrist 13.1929
rhand -34.2287 -3.35046
rfingers 7.12502
rthumb -7.40036 -33.201
lclavicle 1.19271e-014 3.81667e-014
lhumerus 96.5527 33.5151 43.4368
lradius 28.436
lwrist 33.6207
lhand -9.96454 34.528
lfingers 7.12502
lthumb 16.0178 63.8858
rfemur -0.397731 0.742215 21.2738
rtibia 33.3755
rfoot -7.57724 -6.37243
rtoes -1.12976
lfemur -13.7808 -6.33016 -4.93779
ltibia 33.1905
lfoot -15.4104 2.2546
ltoes -16.1574
2054
root 1.66418 18.4632 4.77193 357.453 -115.098 -358.329
lowerback 4.32783 -0.0489888 -6.07196
upperback -8.50218 -1.93682 -6.36144
thorax -11.7199 -1.00999 -3.19431
lowerneck -13.9492 -8.53858 -17.4098
upperneck -10.879 -9.25205 14.4784
head 0.498637 -4.33836 6.78627
rclavicle 1.66979e-014 -2.22639e-014
rhumerus 90.4643 -35.343 -43.2185
rradius 26.5242
rwrist 12.8631
rhand -33.8574 -3.1284
rfingers 7.12502
rthumb -7.04192 -32.9913
lclavicle 1.66979e-014 -2.22639e-014
lhumerus 96.6295 33.7754 43.4054
lradius 28.3164
lwrist 33.1174
lhand -9.87461 34.2409
lfingers 7.12502
lthumb 16.1044 63.5917
rfemur -0.387187 0.726374 21.3577
rtibia 32.6981
rfoot -6.8154 -7.06511
rtoes -0.917414
lfemur -14.2944 -6.28387 -4.84248
ltibia 33.3434
lfoot -15.0812 2.68971
ltoes -15.3397
2055
root 1.68252 18.5318 4.75329 357.575 -114.878 -358.34
lowerback 4.21951 -0.0510274 -6.01624
upperback -8.59777 -1.95524 -6.4498
thorax -11.7714 -1.0347 -3.32281
lowerneck -13.9953 -8.63335 -17.6499
upperneck -10.6531 -9.33074 14.619
head 0.604508 -4.36375 6.8529
rclavicle -8.0309e-014 -2.54444e-014
rhumerus 90.111 -35.3922 -42.9502
rradius 26.6017
rwrist 12.5794
rhand -33.4363 -3.03843
rfingers 7.12502
rthumb -6.63546 -32.9145
lclavicle -8.0309e-014 -2.54444e-014
lhumerus 96.3076 34.2257 42.927
lradius 28.313
lwrist 32.9382
lhand -9.6663 33.9978
lfingers 7.12502
lthumb 16.305 63.3323
rfemur -0.28557 0.783575 21.4634
rtibia 31.9608
rfoot -6.09727 -7.86887
rtoes 0.752739
lfemur -14.8132 -6.17453 -4.74809
ltibia 33.5656
lfoot -14.6083 2.82627
ltoes -14.9281
2056
root 1.69902 18.6048 4.73345 357.946 -114.659 -358.648
lowerback 4.14737 -0.0789954 -6.13557
upperback -8.76837 -2.05679 -6.58298
thorax -11.936 -1.09094 -3.39434
lowerneck -13.9197 -8.61066 -17.7692
upperneck -10.3426 -9.28582 14.8194
head 0.700481 -4.33302 6.93257
rclavicle -4.37326e-014 1.59028e-014
rhumerus 89.8813 -35.2413 -42.9068
rradius 26.5596
rwrist 12.4043
rhand -32.9758 -3.04761
rfingers 7.12502
rthumb -6.19088 -32.9371
lclavicle -4.37326e-014 1.59028e-014
lhumerus 95.6061 34.6614 41.9691
lradius 28.2468
lwrist 32.8713
lhand -9.65611 33.6679
lfingers 7.12502
lthumb 16.3148 63.0016
rfemur -0.142161 0.829503 21.4078
rtibia 31.1661
rfoot -5.37497 -8.68915
rtoes 3.01602
lfemur -15.2996 -6.14138 -4.79791
ltibia 33.8399
lfoot -14.1391 2.91905
ltoes -14.1812
